<?xml version="1.0" encoding="iso-8859-1"?>
<!-- Uploaded to: SVG Repo, www.svgrepo.com, Generator: SVG Repo Mixer Tools -->
<svg height="800px" width="800px" version="1.1" id="Layer_1" xmlns="http://www.w3.org/2000/svg" xmlns:xlink="http://www.w3.org/1999/xlink" 
	 viewBox="0 0 507.9 507.9" xml:space="preserve">
<path style="fill:#194F82;" d="M465.7,52.85H101.5c-23.3,0-42.3,19-42.3,42.3v72.5H42.3c-23.3,0.1-42.3,19-42.3,42.4v202.7
	c0,23.3,19,42.3,42.3,42.3h350.1c23.3,0,42.3-19,42.3-42.3v-72.5h30.9c23.3,0,42.3-19,42.3-42.3V95.25
	C508,71.85,489,52.85,465.7,52.85z M238.2,167.75c8-24.6,25.8-41.6,45.4-41.6s37.4,17.1,45.4,41.6L238.2,167.75L238.2,167.75z
	 M406.5,412.65c0,7.8-6.3,14.1-14.1,14.1H42.3c-7.8,0-14.1-6.3-14.1-14.1v-202.6c0-7.8,6.3-14.1,14.1-14.1h350.1
	c7.8,0,14.1,6.3,14.1,14.1V412.65z M479.8,297.85c0,7.8-6.3,14.1-14.1,14.1h-30.9v-101.9c0-23.3-19-42.3-42.3-42.3h-34.1
	c-9.8-41.1-39.8-69.8-74.7-69.8c-35,0-64.9,28.7-74.7,69.8H87.3v-72.5c0-7.8,6.3-14.1,14.1-14.1h364.2c7.8,0,14.1,6.3,14.1,14.1
	v202.6H479.8z"/>
<path style="fill:#FFFFFF;" d="M392.4,426.85c7.8,0,14.1-6.3,14.1-14.1v-202.7c0-7.8-6.3-14.1-14.1-14.1H42.3
	c-7.8,0-14.1,6.3-14.1,14.1v202.7c0,7.8,6.3,14.1,14.1,14.1H392.4z"/>
<path style="fill:#56ACE0;" d="M56.3,394.35v-166.4c2.2,0,4-1.8,4-4h313.9c0,2.2,1.8,4,4,4v166.4c-2.2,0-4,1.8-4,4H60.3
	C60.3,396.15,58.5,394.35,56.3,394.35z"/>
<path style="fill:#FFC10D;" d="M465.7,81.05H101.5c-7.8,0-14.1,6.3-14.1,14.1v72.5h121.5c9.8-41.1,39.8-69.8,74.7-69.8
	c35,0,64.9,28.7,74.7,69.8h34.1c23.3,0,42.3,19,42.3,42.3v102h30.9c7.8,0,14.1-6.3,14.1-14.1V95.25
	C479.8,87.45,473.4,81.05,465.7,81.05z"/>
<path style="fill:#56ACE0;" d="M283.6,126.05c-19.6,0-37.4,17.1-45.4,41.6H329C320.9,143.15,303.2,126.05,283.6,126.05z"/>
<g>
	<path style="fill:#194F82;" d="M217.4,271.15c8,0,14.5,6.5,14.5,14.5c0,6.2,5,11.2,11.2,11.2s11.2-5,11.2-11.2
		c0-16.5-10.8-30.5-25.8-35.2v-6.2c0-6.2-5-11.2-11.2-11.2s-11.2,5-11.2,11.2v6.2c-14.9,4.8-25.8,18.8-25.8,35.2
		c0,20.4,16.6,37,37,37c-0.3,0,0,0,0.1,0c7.3,0.7,14.4,6.8,14.4,14.4c0,8-6.5,14.5-14.5,14.5s-14.5-6.5-14.5-14.5
		c0-6.2-5-11.2-11.2-11.2s-11.2,5-11.2,11.2c0,16.5,10.8,30.5,25.8,35.2v6.1c0,6.2,5,11.2,11.2,11.2s11.2-5,11.2-11.2v-6.1
		c14.9-4.8,25.8-18.8,25.8-35.2c0-20.4-18-36.9-38.4-36.9c0.3,0,0,0-0.1,0c-7.3-0.7-13.1-6.9-13.1-14.4
		C202.9,277.75,209.4,271.15,217.4,271.15z"/>
	<path style="fill:#194F82;" d="M123.6,344.75h-32c-7,0-12.6,5.7-12.6,12.6c0,7,5.7,12.6,12.6,12.6h31.9c7,0,12.6-5.7,12.6-12.6
		C136.2,350.45,130.5,344.75,123.6,344.75z"/>
	<path style="fill:#194F82;" d="M123.6,298.75H79c-7,0-12.6,5.7-12.6,12.6c0,7,5.7,12.6,12.6,12.6h44.6c7,0,12.6-5.7,12.6-12.6
		C136.2,304.35,130.5,298.75,123.6,298.75z"/>
	<path style="fill:#194F82;" d="M123.6,252.65h-32c-7,0-12.6,5.7-12.6,12.6c0,7,5.7,12.6,12.6,12.6h31.9c7,0,12.6-5.7,12.6-12.6
		C136.2,258.35,130.5,252.65,123.6,252.65z"/>
	<path style="fill:#194F82;" d="M311.2,277.95h31.9c7,0,12.6-5.7,12.6-12.6c0-7-5.7-12.6-12.6-12.6h-31.9c-7,0-12.6,5.7-12.6,12.6
		S304.2,277.95,311.2,277.95z"/>
	<path style="fill:#194F82;" d="M355.8,298.75h-44.6c-7,0-12.6,5.7-12.6,12.6c0,7,5.7,12.6,12.6,12.6h44.6c7,0,12.6-5.7,12.6-12.6
		C368.4,304.35,362.7,298.75,355.8,298.75z"/>
	<path style="fill:#194F82;" d="M343.1,344.75h-31.9c-7,0-12.6,5.7-12.6,12.6c0,7,5.7,12.6,12.6,12.6h31.9c7,0,12.6-5.7,12.6-12.6
		C355.8,350.45,350.1,344.75,343.1,344.75z"/>
</g>
</svg>